<svg width="160" height="58" viewBox="0 0 160 58" fill="none" xmlns="http://www.w3.org/2000/svg">
<path d="M153.029 22.8825H143.263L141.4 27.3898H136.412L145.787 6.35596H150.595L160 27.3898H154.892L153.029 22.8825ZM151.496 19.1866L148.161 11.1336L144.826 19.1866H151.496Z" fill="white"/>
<path d="M114.645 6.35596H124.2C126.484 6.35596 128.497 6.79667 130.24 7.67808C132.002 8.53947 133.365 9.76144 134.326 11.344C135.308 12.9265 135.799 14.7695 135.799 16.8729C135.799 18.9763 135.308 20.8192 134.326 22.4018C133.365 23.9843 132.002 25.2163 130.24 26.0977C128.497 26.9591 126.484 27.3898 124.2 27.3898H114.645V6.35596ZM123.96 23.3934C126.063 23.3934 127.736 22.8124 128.978 21.6506C130.24 20.4687 130.871 18.8761 130.871 16.8729C130.871 14.8697 130.24 13.2871 128.978 12.1252C127.736 10.9433 126.063 10.3524 123.96 10.3524H119.512V23.3934H123.96Z" fill="white"/>
<path d="M105.95 27.3898L101.894 21.5304H101.653H97.4167V27.3898H92.5488V6.35596H101.653C103.516 6.35596 105.129 6.66646 106.491 7.28746C107.873 7.90846 108.935 8.78987 109.676 9.93171C110.418 11.0735 110.788 12.4257 110.788 13.9882C110.788 15.5508 110.408 16.9029 109.646 18.0448C108.905 19.1666 107.843 20.028 106.461 20.6289L111.179 27.3898H105.95ZM105.86 13.9882C105.86 12.8063 105.48 11.9049 104.718 11.2839C103.957 10.6429 102.845 10.3223 101.383 10.3223H97.4167V17.6541H101.383C102.845 17.6541 103.957 17.3336 104.718 16.6926C105.48 16.0516 105.86 15.1501 105.86 13.9882Z" fill="white"/>
<path d="M77.3816 27.7506C75.198 27.7506 73.2249 27.2799 71.462 26.3383C69.7192 25.3968 68.347 24.1047 67.3454 22.4621C66.3638 20.7994 65.873 18.9364 65.873 16.8731C65.873 14.8098 66.3638 12.9568 67.3454 11.3142C68.347 9.65149 69.7192 8.34939 71.462 7.40788C73.2249 6.46636 75.198 5.99561 77.3816 5.99561C79.5651 5.99561 81.5282 6.46636 83.271 7.40788C85.0138 8.34939 86.386 9.65149 87.3877 11.3142C88.3893 12.9568 88.8901 14.8098 88.8901 16.8731C88.8901 18.9364 88.3893 20.7994 87.3877 22.4621C86.386 24.1047 85.0138 25.3968 83.271 26.3383C81.5282 27.2799 79.5651 27.7506 77.3816 27.7506ZM77.3816 23.6039C78.6236 23.6039 79.7454 23.3235 80.747 22.7626C81.7486 22.1817 82.5298 21.3804 83.0907 20.3587C83.6717 19.3371 83.9621 18.1752 83.9621 16.8731C83.9621 15.571 83.6717 14.4091 83.0907 13.3875C82.5298 12.3659 81.7486 11.5746 80.747 11.0137C79.7454 10.4327 78.6236 10.1423 77.3816 10.1423C76.1396 10.1423 75.0178 10.4327 74.0161 11.0137C73.0145 11.5746 72.2233 12.3659 71.6423 13.3875C71.0814 14.4091 70.801 15.571 70.801 16.8731C70.801 18.1752 71.0814 19.3371 71.6423 20.3587C72.2233 21.3804 73.0145 22.1817 74.0161 22.7626C75.0178 23.3235 76.1396 23.6039 77.3816 23.6039Z" fill="white"/>
<path d="M149.494 38.4861H144.343V35.4507H158.37V38.4861H153.219V51.5478H149.494V38.4861Z" fill="#FF6600"/>
<path d="M139.963 48.0984H132.489L131.063 51.5478H127.246L134.421 35.4507H138.1L145.298 51.5478H141.389L139.963 48.0984ZM138.79 45.2699L136.237 39.107L133.685 45.2699H138.79Z" fill="#FF6600"/>
<path d="M122.048 51.5478L122.025 41.8895L117.288 49.8461H115.609L110.895 42.0965V51.5478H107.399V35.4507H110.481L116.506 45.4539L122.439 35.4507H125.497L125.543 51.5478H122.048Z" fill="#FF6600"/>
<path d="M99.8525 35.4507H103.578V51.5478H99.8525V35.4507Z" fill="#FF6600"/>
<path d="M85.9746 35.4507H89.6999V48.5124H97.7715V51.5478H85.9746V35.4507Z" fill="#FF6600"/>
<path d="M74.8161 45.2239L72.6545 47.4775V51.5478H68.9521V35.4507H72.6545V42.9703L79.7832 35.4507H83.9225L77.2537 42.6254L84.3134 51.5478H79.9672L74.8161 45.2239Z" fill="#FF6600"/>
<path d="M19.7675 32.9752C24.0184 29.7984 28.2177 26.6515 32.421 23.5124C33.4137 22.7639 34.339 21.7453 35.4667 21.3641C36.5945 20.9829 37.895 21.2668 39.124 21.2609C39.4305 21.2408 39.7377 21.289 40.0234 21.4018L20.1686 36.7139L0 21.4137L0.0277967 21.2609C1.14165 21.2609 2.25551 21.239 3.36738 21.2609C3.83993 21.2728 4.05833 21.1695 4.22313 20.6652C7.77516 9.69144 15.1671 2.86136 26.4745 0.536358C39.7772 -2.19766 53.7332 5.78003 58.3534 18.5546C58.409 18.7095 58.4586 18.8684 58.552 19.1503C57.4599 19.1503 56.4295 19.059 55.4248 19.1741C54.1521 19.3191 53.5466 18.8525 52.9549 17.679C50.7184 13.2861 47.1816 9.68977 42.8266 7.3802C38.4717 5.07062 33.5104 4.16021 28.6192 4.77305C23.728 5.38589 19.1447 7.49217 15.4942 10.8048C11.8437 14.1174 9.30349 18.4752 8.21991 23.2841C8.10078 23.8063 8.15637 24.1339 8.63091 24.4912C12.3438 27.2908 16.0268 30.1261 19.7675 32.9752Z" fill="#FF6600"/>
<path d="M4.72949 38.1913C6.26427 38.1913 7.6839 38.1635 9.09756 38.2171C9.32788 38.2171 9.63563 38.5506 9.75476 38.8127C11.8278 43.2502 15.1934 46.9576 19.4102 49.449C33.2748 57.788 51.8212 49.6654 55.0675 33.8331C55.141 33.4678 55.1549 33.2236 54.8193 32.9694C51.0469 30.1044 47.2745 27.2215 43.4544 24.3008C42.054 25.3452 40.6529 26.3915 39.2511 27.4399C35.5859 30.1719 31.924 32.9039 28.2654 35.6359C27.9575 35.8489 27.5952 35.9694 27.2211 35.9834C25.9504 36.0251 24.6777 35.9993 23.2501 35.9993C23.5003 35.769 23.6353 35.624 23.7921 35.5029C30.0398 30.6822 36.2875 25.8607 42.5351 21.0387C42.8746 20.7766 43.103 20.6555 43.5159 20.9692C49.9608 25.8826 56.4156 30.788 62.8804 35.6856C62.9539 35.7432 63.0174 35.8127 63.212 35.9933C62.0068 35.9933 60.9406 36.0271 59.8783 35.9794C59.3184 35.9556 59.098 36.1482 58.9313 36.6783C55.6413 47.0505 48.7358 53.7356 38.2048 56.4141C24.4513 59.9085 9.92749 52.1651 4.96378 38.8902C4.88436 38.6916 4.82678 38.4871 4.72949 38.1913Z" fill="white"/>
<path d="M40.2461 28.9722H42.7002V31.4699H40.2461V28.9722Z" fill="white"/>
<path d="M40.2383 32.481H42.6884V34.9469H40.2383V32.481Z" fill="white"/>
<path d="M16.9424 22.3945H19.2793V24.791H16.9424V22.3945Z" fill="#FF6600"/>
<path d="M20.4062 22.3965H22.8007V24.7791H20.4062V22.3965Z" fill="#FF6600"/>
<path d="M46.2023 32.4868V34.9409H43.7383V32.4868H46.2023Z" fill="white"/>
<path d="M46.2143 28.9941V31.472H43.7344V28.9941H46.2143Z" fill="white"/>
<path d="M16.9336 25.855H19.2785V28.2614H16.9336V25.855Z" fill="#FF6600"/>
<path d="M22.7957 28.2994H20.4131V25.897H22.7957V28.2994Z" fill="#FF6600"/>
</svg>
